<svg width="1440" height="544" viewBox="0 0 1440 544" fill="none" xmlns="http://www.w3.org/2000/svg">
<g clip-path="url(#clip0_212_16580)" filter="url(#filter0_f_212_16580)">
<path opacity="0.15" d="M1347.19 237.88C1380.7 274.97 1407.88 339.451 1357.8 384.973C1352.63 389.666 1304.18 432.248 1231.3 426.96C1142.54 420.52 1124.34 350.812 1026.38 332.716C920.298 313.119 858.037 379.425 806.231 359.056C744.971 334.97 737.451 205.071 848.331 149.396C981.906 82.3255 1257.08 138.151 1347.19 237.88Z" fill="#EBC136"/>
<path opacity="0.15" d="M512.245 429.639C543.307 410.569 577.155 372.148 556.134 333.285C553.966 329.278 533.262 292.654 484.679 283.834C425.505 273.09 396.162 316.52 328.092 311.996C254.375 307.096 230.688 252.301 191.971 257.114C146.189 262.806 108.627 348.21 166.513 404.149C236.248 471.538 428.723 480.917 512.245 429.639Z" fill="#EBC136"/>
<path opacity="0.15" d="M694.575 321.89C679.187 300.799 663.464 260.221 676.947 222.859C678.337 219.007 691.519 183.857 717.877 178.297C749.983 171.526 763.013 216.799 799.481 216.823C838.973 216.849 854.817 163.774 875.122 171.155C899.131 179.883 914.044 267.57 879.944 319.508C838.865 382.075 735.953 378.602 694.575 321.89Z" fill="#EBC136"/>
<path opacity="0.15" d="M682.467 274.802C699.285 264.124 717.622 242.633 706.277 220.936C705.107 218.699 693.931 198.254 667.654 193.363C635.649 187.407 619.745 211.693 582.923 209.218C543.047 206.538 530.27 175.943 509.322 178.661C484.55 181.876 464.171 229.62 495.448 260.828C533.128 298.423 637.247 303.514 682.467 274.802Z" fill="#EBC136"/>
<path opacity="0.15" d="M1406.62 248.365C1424.76 232.046 1444.7 199.494 1432.95 167.192C1431.74 163.861 1420.14 133.43 1392.17 126.595C1358.09 118.269 1340.7 154.965 1301.42 151.946C1258.89 148.678 1245.75 103.066 1223.34 107.534C1196.83 112.818 1174.28 184.751 1207.15 230.934C1246.76 286.569 1357.86 292.244 1406.62 248.365Z" fill="#8047F8"/>
<path opacity="0.15" d="M1418.61 377.852C1432.71 388.804 1448.15 410.725 1438.84 432.622C1437.88 434.88 1428.7 455.511 1406.82 460.261C1380.16 466.047 1366.73 441.312 1336.03 443.533C1302.79 445.938 1292.35 476.841 1274.86 473.922C1254.17 470.471 1236.84 421.932 1262.71 390.552C1293.88 352.749 1380.69 348.404 1418.61 377.852Z" fill="#8047F8"/>
<path opacity="0.15" d="M219.937 136.891C232.507 158.616 244.932 200.056 232.695 237.491C231.433 241.351 219.5 276.558 197.055 281.502C169.717 287.524 159.675 241.405 128.792 240.442C95.347 239.4 80.7653 292.665 63.7319 284.678C43.5904 275.234 32.883 186.175 62.8998 134.53C99.0604 72.3152 186.139 78.4762 219.937 136.891Z" fill="#EBC136"/>
<path opacity="0.15" d="M861.507 432.947C835.621 413.727 810.462 375.18 836.926 336.528C839.654 332.543 865.434 296.123 912.6 287.62C970.048 277.262 990.109 320.78 1054.84 316.683C1124.94 312.246 1156.66 257.712 1192.2 262.753C1234.23 268.713 1254.76 354.166 1190.71 409.631C1113.55 476.449 931.112 484.627 861.507 432.947Z" fill="#EBC136"/>
<path opacity="0.15" d="M787.922 399.538C809.564 380.513 832.249 343.904 814.967 310.187C813.185 306.71 796.248 274.989 760.43 269.962C716.805 263.84 697.654 304.687 647.868 304.695C593.953 304.704 573.92 256.808 545.979 263.46C512.939 271.327 489.942 350.444 534.931 397.321C589.129 453.792 729.728 450.695 787.922 399.538Z" fill="#8047F8"/>
<path opacity="0.15" d="M835.472 141.004C876.019 151.666 919.079 171.465 888.336 188.257C885.167 189.989 854.993 205.762 789.11 207.009C708.863 208.528 672.181 186.67 580.369 184.784C480.942 182.742 445.601 206.767 393.852 202.269C332.659 196.95 287.602 155.145 369 132.591C467.058 105.42 726.443 112.335 835.472 141.004Z" fill="#8047F8"/>
<path opacity="0.15" d="M168.139 382.866C187.225 360.714 207.35 318.381 192.454 279.978C190.918 276.018 176.31 239.899 144.98 234.685C106.82 228.335 89.7611 275.475 46.1632 276.25C-1.05088 277.089 -18.2558 222.467 -42.7709 230.526C-71.7595 240.056 -92.4579 331.145 -53.3915 384.214C-6.32917 448.144 116.816 442.431 168.139 382.866Z" fill="#8047F8"/>
</g>
<defs>
<filter id="filter0_f_212_16580" x="-187" y="-160" width="1760" height="864" filterUnits="userSpaceOnUse" color-interpolation-filters="sRGB">
<feFlood flood-opacity="0" result="BackgroundImageFix"/>
<feBlend mode="normal" in="SourceGraphic" in2="BackgroundImageFix" result="shape"/>
<feGaussianBlur stdDeviation="80" result="effect1_foregroundBlur_212_16580"/>
</filter>
<clipPath id="clip0_212_16580">
<rect width="1440" height="544" fill="white" transform="translate(-27)"/>
</clipPath>
</defs>
</svg>
